<mxfile host="app.diagrams.net" modified="2024-06-01T12:21:14.608Z" agent="Mozilla/5.0 (Windows NT 10.0; Win64; x64) AppleWebKit/537.36 (KHTML, like Gecko) Chrome/109.0.0.0 Safari/537.36 SLBrowser/9.0.3.5211 SLBChan/33" version="24.4.10" etag="wDTonYSDHuWmTmTql3L9" type="github">
  <diagram name="第 1 页" id="E0QO8rtX83SEDDH9L5GF">
    <mxGraphModel>
      <root>
        <mxCell id="0" />
        <mxCell id="1" parent="0" />
      </root>
    </mxGraphModel>
  </diagram>
</mxfile>
